<svg xmlns="http://www.w3.org/2000/svg" viewBox="0 0 100 100">
  <!-- tło -->
  <rect width="100" height="100" rx="22" fill="#18181b"/>
  <!-- uszy -->
  <ellipse cx="27" cy="26" rx="11" ry="14" fill="#d4d4d8" transform="rotate(-15 27 26)"/>
  <ellipse cx="73" cy="26" rx="11" ry="14" fill="#d4d4d8" transform="rotate(15 73 26)"/>
  <ellipse cx="27" cy="26" rx="6" ry="9" fill="#a1a1aa" transform="rotate(-15 27 26)"/>
  <ellipse cx="73" cy="26" rx="6" ry="9" fill="#a1a1aa" transform="rotate(15 73 26)"/>
  <!-- głowa -->
  <ellipse cx="50" cy="56" rx="33" ry="29" fill="#d4d4d8"/>
  <!-- ryj -->
  <ellipse cx="50" cy="70" rx="19" ry="13" fill="#a1a1aa"/>
  <!-- nozdrza -->
  <ellipse cx="43" cy="71" r="4" fill="#71717a"/>
  <ellipse cx="57" cy="71" r="4" fill="#71717a"/>
  <!-- oczy -->
  <circle cx="37" cy="52" r="5" fill="#18181b"/>
  <circle cx="63" cy="52" r="5" fill="#18181b"/>
  <circle cx="38.5" cy="50.5" r="1.8" fill="white"/>
  <circle cx="64.5" cy="50.5" r="1.8" fill="white"/>
  <!-- kły -->
  <path d="M35 76 Q26 83 29 91 Q32 95 37 91 Q39 82 37 76Z" fill="#fafafa"/>
  <path d="M65 76 Q74 83 71 91 Q68 95 63 91 Q61 82 63 76Z" fill="#fafafa"/>
</svg>
